<svg width="429" height="212" viewBox="0 0 429 212" fill="none" xmlns="http://www.w3.org/2000/svg">
<g filter="url(#filter0_d_65_8)">
<rect x="10" y="6" width="408.667" height="192" rx="8" fill="#F4F8FF"/>
</g>
<ellipse cx="311.5" cy="102.5" rx="99.5" ry="96.5" fill="#1B3764"/>
<rect x="313" y="6" width="106" height="193" fill="#1B3764"/>
<path d="M336 128.863C334.832 128.863 334.033 129.642 334.033 130.83V142.593C334.033 143.762 334.811 144.561 336 144.561C337.189 144.561 337.968 143.782 337.968 142.593V130.83C337.947 129.642 337.168 128.863 336 128.863Z" fill="#FFCA42"/>
<path d="M310.506 103C310.506 101.832 309.727 101.033 308.539 101.033H296.775C295.607 101.033 294.808 102.201 294.808 103C294.808 104.168 295.587 104.968 296.386 104.968H308.149C309.338 104.947 310.506 104.168 310.506 103Z" fill="#FFCA42"/>
<path d="M336 77.5061C337.168 77.5061 337.968 76.7274 337.968 75.5388V63.7755C337.968 62.6074 337.189 61.8081 336 61.8081C334.811 61.8081 334.033 62.5869 334.033 63.7755V75.5388C334.033 76.7274 334.811 77.5061 336 77.5061Z" fill="#FFCA42"/>
<path d="M336 54C308.949 54 287 75.9486 287 103C287 130.051 308.949 152 336 152C363.051 152 385 130.051 385 103C385 75.9486 363.031 54 336 54ZM336 148.065C310.916 148.065 290.935 128.084 290.935 103C290.935 77.9159 310.916 57.9348 336 57.9348C361.084 57.9348 381.065 77.9159 381.065 103C381.065 128.084 361.084 148.065 336 148.065Z" fill="#FFCA42"/>
<path d="M328.93 95.9297C321.88 102.979 309.727 129.252 309.727 129.252C309.727 129.252 336 116.71 343.05 110.05C350.1 103.389 362.252 76.7273 362.252 76.7273C362.252 76.7273 336 89.2693 328.93 95.9297ZM318.355 121.014C318.355 121.014 327.762 103.369 332.065 99.0652L340.304 107.304C336 111.607 318.355 121.014 318.355 121.014Z" fill="#FFCA42"/>
<path d="M375.573 101.033H363.81C362.642 101.033 361.842 101.811 361.842 103C361.842 104.189 362.621 104.968 363.81 104.968H375.573C376.741 104.968 377.54 104.189 377.54 103C377.151 102.201 376.352 101.033 375.573 101.033Z" fill="#FFCA42"/>
<path d="M43.5327 83.8182V110H38.0611V88.3182H27.4759V110H22.0043V83.8182H43.5327ZM48.7006 117.364V90.3636H54.07V93.6619H54.3129C54.5515 93.1335 54.8967 92.5966 55.3484 92.0511C55.8086 91.4972 56.4052 91.0369 57.1381 90.6705C57.8796 90.2955 58.8001 90.108 59.8995 90.108C61.3313 90.108 62.6523 90.483 63.8626 91.233C65.0728 91.9744 66.0401 93.0952 66.7646 94.5952C67.489 96.0866 67.8512 97.9574 67.8512 100.207C67.8512 102.398 67.4975 104.247 66.7901 105.756C66.0913 107.256 65.1367 108.393 63.9265 109.169C62.7248 109.936 61.3782 110.32 59.8867 110.32C58.8299 110.32 57.9308 110.145 57.1893 109.795C56.4563 109.446 55.8555 109.007 55.3867 108.479C54.918 107.942 54.56 107.401 54.3129 106.855H54.1467V117.364H48.7006ZM54.0316 100.182C54.0316 101.349 54.1935 102.368 54.5174 103.237C54.8413 104.107 55.31 104.784 55.9237 105.27C56.5373 105.747 57.283 105.986 58.1609 105.986C59.0472 105.986 59.7972 105.743 60.4109 105.257C61.0245 104.763 61.489 104.081 61.8043 103.212C62.1282 102.334 62.2901 101.324 62.2901 100.182C62.2901 99.0483 62.1325 98.0511 61.8171 97.1903C61.5018 96.3295 61.0373 95.6562 60.4237 95.1705C59.81 94.6847 59.0558 94.4418 58.1609 94.4418C57.2745 94.4418 56.5245 94.6761 55.9109 95.1449C55.3058 95.6136 54.8413 96.2784 54.5174 97.1392C54.1935 98 54.0316 99.0142 54.0316 100.182ZM76.685 102.815L83.7546 90.3636H89.1239V110H83.9336V97.5099L76.8896 110H71.4819V90.3636H76.685V102.815ZM93.4897 110V90.3636H98.9357V97.983H100.47L105.814 90.3636H112.206L105.264 100.105L112.282 110H105.814L100.968 103.033H98.9357V110H93.4897ZM113.433 110L113.407 105.679H114.059C114.52 105.679 114.916 105.568 115.248 105.347C115.589 105.116 115.87 104.746 116.092 104.234C116.314 103.723 116.488 103.045 116.616 102.202C116.744 101.349 116.829 100.301 116.872 99.0568L117.191 90.3636H132.123V110H126.933V94.6463H122.088L121.781 100.642C121.704 102.287 121.504 103.702 121.18 104.886C120.865 106.071 120.426 107.043 119.863 107.801C119.301 108.551 118.623 109.105 117.831 109.463C117.038 109.821 116.118 110 115.069 110H113.433ZM147.199 98.1236V102.445H136.55V98.1236H147.199ZM140.756 90.3636V110H135.322V90.3636H140.756ZM153.08 110.384C151.136 110.384 149.457 109.949 148.043 109.08C146.628 108.21 145.537 107.009 144.77 105.474C144.011 103.94 143.632 102.18 143.632 100.195C143.632 98.2088 144.011 96.4574 144.77 94.9403C145.537 93.4233 146.628 92.2386 148.043 91.3864C149.457 90.5341 151.136 90.108 153.08 90.108C155.031 90.108 156.71 90.5341 158.116 91.3864C159.531 92.2386 160.618 93.4233 161.376 94.9403C162.143 96.4574 162.527 98.2088 162.527 100.195C162.527 102.18 162.143 103.94 161.376 105.474C160.618 107.009 159.531 108.21 158.116 109.08C156.71 109.949 155.031 110.384 153.08 110.384ZM153.08 105.986C154.094 105.986 154.912 105.739 155.534 105.244C156.156 104.741 156.612 104.055 156.902 103.186C157.192 102.308 157.337 101.311 157.337 100.195C157.337 99.0781 157.192 98.0895 156.902 97.2287C156.612 96.3594 156.156 95.6776 155.534 95.1832C154.912 94.6889 154.094 94.4418 153.08 94.4418C152.074 94.4418 151.256 94.6889 150.625 95.1832C149.994 95.669 149.53 96.3423 149.232 97.2031C148.942 98.0639 148.797 99.0611 148.797 100.195C148.797 101.32 148.942 102.317 149.232 103.186C149.53 104.055 149.994 104.741 150.625 105.244C151.256 105.739 152.074 105.986 153.08 105.986ZM183.269 90.3636V110H178.104V90.3636H183.269ZM180.751 98.9801V103.276C180.333 103.463 179.813 103.642 179.191 103.812C178.569 103.974 177.917 104.107 177.235 104.209C176.553 104.311 175.914 104.362 175.317 104.362C172.496 104.362 170.276 103.783 168.657 102.624C167.038 101.456 166.228 99.5937 166.228 97.0369V90.3381H171.367V97.0369C171.367 97.7955 171.495 98.3963 171.751 98.8395C172.015 99.2827 172.433 99.6023 173.004 99.7983C173.583 99.9858 174.354 100.08 175.317 100.08C176.212 100.08 177.09 99.9858 177.951 99.7983C178.812 99.6108 179.745 99.3381 180.751 98.9801ZM196.446 110.384C194.426 110.384 192.688 109.974 191.23 109.156C189.782 108.33 188.665 107.162 187.881 105.653C187.097 104.136 186.705 102.342 186.705 100.271C186.705 98.2514 187.097 96.4787 187.881 94.9531C188.665 93.4276 189.769 92.2386 191.192 91.3864C192.624 90.5341 194.303 90.108 196.229 90.108C197.525 90.108 198.73 90.3168 199.847 90.7344C200.972 91.1435 201.952 91.7614 202.787 92.5881C203.631 93.4148 204.287 94.4545 204.756 95.7074C205.225 96.9517 205.459 98.4091 205.459 100.08V101.575H188.878V98.2003H200.333C200.333 97.4162 200.162 96.7216 199.821 96.1165C199.48 95.5114 199.007 95.0384 198.402 94.6974C197.806 94.348 197.111 94.1733 196.319 94.1733C195.492 94.1733 194.759 94.3651 194.12 94.7486C193.489 95.1236 192.995 95.6307 192.637 96.2699C192.279 96.9006 192.096 97.6037 192.087 98.3793V101.588C192.087 102.56 192.266 103.399 192.624 104.107C192.99 104.814 193.506 105.359 194.171 105.743C194.836 106.126 195.624 106.318 196.536 106.318C197.141 106.318 197.695 106.233 198.198 106.062C198.701 105.892 199.131 105.636 199.489 105.295C199.847 104.955 200.12 104.537 200.307 104.043L205.344 104.375C205.088 105.585 204.564 106.642 203.772 107.545C202.988 108.44 201.973 109.139 200.729 109.642C199.493 110.136 198.066 110.384 196.446 110.384Z" fill="#1B3764"/>
<path d="M231.011 98.0085V102.291H220.759V98.0085H231.011ZM222.548 90.3636V110H217.345V90.3636H222.548ZM234.425 90.3636V110H229.26V90.3636H234.425ZM243.853 102.815L250.923 90.3636H256.292V110H251.102V97.5099L244.058 110H238.65V90.3636H243.853V102.815ZM272.163 110V94.6335H268.482C267.484 94.6335 266.726 94.8636 266.206 95.3239C265.686 95.7841 265.43 96.3295 265.439 96.9602C265.43 97.5994 265.678 98.1406 266.18 98.5838C266.692 99.0185 267.442 99.2358 268.43 99.2358H273.979V102.918H268.43C266.751 102.918 265.298 102.662 264.071 102.151C262.844 101.639 261.898 100.928 261.233 100.016C260.568 99.0952 260.24 98.0256 260.249 96.8068C260.24 95.5284 260.568 94.4077 261.233 93.4446C261.898 92.473 262.848 91.7187 264.084 91.1818C265.328 90.6364 266.794 90.3636 268.482 90.3636H277.239V110H272.163ZM259.686 110L265.145 99.7727H270.348L264.902 110H259.686Z" fill="#FFCA42"/>
<defs>
<filter id="filter0_d_65_8" x="0" y="0" width="428.667" height="212" filterUnits="userSpaceOnUse" color-interpolation-filters="sRGB">
<feFlood flood-opacity="0" result="BackgroundImageFix"/>
<feColorMatrix in="SourceAlpha" type="matrix" values="0 0 0 0 0 0 0 0 0 0 0 0 0 0 0 0 0 0 127 0" result="hardAlpha"/>
<feOffset dy="4"/>
<feGaussianBlur stdDeviation="5"/>
<feComposite in2="hardAlpha" operator="out"/>
<feColorMatrix type="matrix" values="0 0 0 0 0 0 0 0 0 0 0 0 0 0 0 0 0 0 0.25 0"/>
<feBlend mode="normal" in2="BackgroundImageFix" result="effect1_dropShadow_65_8"/>
<feBlend mode="normal" in="SourceGraphic" in2="effect1_dropShadow_65_8" result="shape"/>
</filter>
</defs>
</svg>
