<svg width="411" height="194" viewBox="0 0 411 194" fill="none" xmlns="http://www.w3.org/2000/svg">
<rect x="2" y="2" width="408.667" height="192" rx="8" fill="#F4F8FF"/>
<rect width="408.667" height="192" rx="8" fill="#F4F8FF"/>
<path d="M2 10C2 5.58172 5.58172 2 10 2H156.768C159.934 2 162.803 3.86777 164.084 6.76368L202.568 93.7637C203.48 95.8249 203.48 98.1751 202.568 100.236L164.084 187.236C162.803 190.132 159.934 192 156.768 192H10C5.58172 192 2 188.418 2 184V10Z" fill="#B4C7E7"/>
<path d="M134.857 117.315V106.589H136.634C137.239 106.155 137.793 105.541 138.295 104.749C138.798 103.947 139.229 102.844 139.587 101.438C139.945 100.023 140.2 98.1733 140.354 95.8892L141.095 84.8182H158.418V106.589H161.281V117.29H155.963V111H140.175V117.315H134.857ZM143.026 106.589H153.099V89.3821H146.081L145.672 95.8892C145.561 97.6193 145.378 99.1534 145.122 100.491C144.875 101.83 144.572 103.001 144.214 104.007C143.865 105.004 143.469 105.865 143.026 106.589ZM173.493 111.384C171.473 111.384 169.735 110.974 168.277 110.156C166.828 109.33 165.712 108.162 164.928 106.653C164.144 105.136 163.752 103.342 163.752 101.271C163.752 99.2514 164.144 97.4787 164.928 95.9531C165.712 94.4276 166.816 93.2386 168.239 92.3864C169.671 91.5341 171.35 91.108 173.276 91.108C174.571 91.108 175.777 91.3168 176.894 91.7344C178.019 92.1435 178.999 92.7614 179.834 93.5881C180.678 94.4148 181.334 95.4545 181.803 96.7074C182.272 97.9517 182.506 99.4091 182.506 101.08V102.575H165.925V99.2003H177.38C177.38 98.4162 177.209 97.7216 176.868 97.1165C176.527 96.5114 176.054 96.0384 175.449 95.6974C174.853 95.348 174.158 95.1733 173.365 95.1733C172.539 95.1733 171.806 95.3651 171.167 95.7486C170.536 96.1236 170.042 96.6307 169.684 97.2699C169.326 97.9006 169.142 98.6037 169.134 99.3793V102.588C169.134 103.56 169.313 104.399 169.671 105.107C170.037 105.814 170.553 106.359 171.218 106.743C171.882 107.126 172.671 107.318 173.583 107.318C174.188 107.318 174.742 107.233 175.245 107.062C175.748 106.892 176.178 106.636 176.536 106.295C176.894 105.955 177.167 105.537 177.354 105.043L182.391 105.375C182.135 106.585 181.611 107.642 180.819 108.545C180.034 109.44 179.02 110.139 177.776 110.642C176.54 111.136 175.113 111.384 173.493 111.384ZM184.545 95.6463V91.3636H202.341V95.6463H196.012V111H190.822V95.6463H184.545ZM213.888 111.384C211.868 111.384 210.129 110.974 208.672 110.156C207.223 109.33 206.107 108.162 205.322 106.653C204.538 105.136 204.146 103.342 204.146 101.271C204.146 99.2514 204.538 97.4787 205.322 95.9531C206.107 94.4276 207.21 93.2386 208.634 92.3864C210.065 91.5341 211.744 91.108 213.67 91.108C214.966 91.108 216.172 91.3168 217.288 91.7344C218.413 92.1435 219.393 92.7614 220.229 93.5881C221.072 94.4148 221.729 95.4545 222.197 96.7074C222.666 97.9517 222.901 99.4091 222.901 101.08V102.575H206.32V99.2003H217.774C217.774 98.4162 217.604 97.7216 217.263 97.1165C216.922 96.5114 216.449 96.0384 215.844 95.6974C215.247 95.348 214.553 95.1733 213.76 95.1733C212.933 95.1733 212.2 95.3651 211.561 95.7486C210.93 96.1236 210.436 96.6307 210.078 97.2699C209.72 97.9006 209.537 98.6037 209.528 99.3793V102.588C209.528 103.56 209.707 104.399 210.065 105.107C210.432 105.814 210.947 106.359 211.612 106.743C212.277 107.126 213.065 107.318 213.977 107.318C214.582 107.318 215.136 107.233 215.639 107.062C216.142 106.892 216.572 106.636 216.93 106.295C217.288 105.955 217.561 105.537 217.749 105.043L222.786 105.375C222.53 106.585 222.006 107.642 221.213 108.545C220.429 109.44 219.415 110.139 218.17 110.642C216.935 111.136 215.507 111.384 213.888 111.384ZM226.455 111V91.3636H231.901V98.983H233.435L238.778 91.3636H245.17L238.229 101.105L245.247 111H238.778L233.933 104.033H231.901V111H226.455ZM246.526 95.6463V91.3636H264.321V95.6463H257.993V111H252.803V95.6463H246.526ZM272.826 103.815L279.895 91.3636H285.265V111H280.074V98.5099L273.03 111H267.623V91.3636H272.826V103.815ZM289.63 111V91.3636H298.004C300.424 91.3636 302.338 91.8239 303.744 92.7443C305.15 93.6648 305.853 94.973 305.853 96.669C305.853 97.7344 305.457 98.6207 304.664 99.3281C303.872 100.036 302.772 100.513 301.366 100.76C302.542 100.845 303.544 101.114 304.37 101.565C305.206 102.009 305.841 102.584 306.275 103.291C306.718 103.999 306.94 104.783 306.94 105.643C306.94 106.76 306.642 107.719 306.045 108.52C305.457 109.321 304.592 109.935 303.45 110.361C302.316 110.787 300.931 111 299.295 111H289.63ZM294.706 106.922H299.295C300.054 106.922 300.646 106.743 301.072 106.385C301.507 106.018 301.724 105.52 301.724 104.889C301.724 104.19 301.507 103.641 301.072 103.24C300.646 102.839 300.054 102.639 299.295 102.639H294.706V106.922ZM294.706 99.4432H298.119C298.664 99.4432 299.129 99.3665 299.512 99.2131C299.904 99.0511 300.203 98.821 300.407 98.5227C300.62 98.2244 300.727 97.8707 300.727 97.4616C300.727 96.8565 300.484 96.3835 299.998 96.0426C299.512 95.7017 298.848 95.5312 298.004 95.5312H294.706V99.4432Z" fill="#231F20"/>
</svg>
