<svg width="429" height="212" viewBox="0 0 429 212" fill="none" xmlns="http://www.w3.org/2000/svg">
<g filter="url(#filter0_d_65_6)">
<rect x="10" y="6" width="408.667" height="192" rx="8" fill="#F4F8FF"/>
</g>
<path d="M10 14C10 9.58173 13.5817 6 18 6H224.015C230.412 6 234.222 13.1357 230.663 18.4511L225.91 25.549C224.107 28.2423 224.107 31.7577 225.91 34.451L236.02 49.549C237.823 52.2423 237.823 55.7577 236.02 58.451L225.91 73.549C224.107 76.2423 224.107 79.7577 225.91 82.451L236.02 97.549C237.823 100.242 237.823 103.758 236.02 106.451L225.91 121.549C224.107 124.242 224.107 127.758 225.91 130.451L236.02 145.549C237.823 148.242 237.823 151.758 236.02 154.451L225.91 169.549C224.107 172.242 224.107 175.758 225.91 178.451L230.663 185.549C234.222 190.864 230.412 198 224.015 198H18C13.5817 198 10 194.418 10 190V14Z" fill="#FFCA42"/>
<path d="M157.276 120V93.8182H167.605C169.591 93.8182 171.283 94.1974 172.68 94.956C174.078 95.706 175.143 96.75 175.876 98.0881C176.618 99.4176 176.989 100.952 176.989 102.69C176.989 104.429 176.614 105.963 175.864 107.293C175.114 108.622 174.027 109.658 172.604 110.399C171.189 111.141 169.476 111.511 167.464 111.511H160.881V107.075H166.57C167.635 107.075 168.513 106.892 169.203 106.526C169.902 106.151 170.422 105.635 170.763 104.979C171.112 104.314 171.287 103.551 171.287 102.69C171.287 101.821 171.112 101.062 170.763 100.415C170.422 99.7585 169.902 99.2514 169.203 98.8935C168.504 98.527 167.618 98.3438 166.544 98.3438H162.811V120H157.276ZM189.038 120.384C187.052 120.384 185.335 119.962 183.886 119.118C182.445 118.266 181.333 117.081 180.549 115.564C179.765 114.038 179.373 112.27 179.373 110.259C179.373 108.23 179.765 106.457 180.549 104.94C181.333 103.415 182.445 102.23 183.886 101.386C185.335 100.534 187.052 100.108 189.038 100.108C191.023 100.108 192.737 100.534 194.177 101.386C195.626 102.23 196.742 103.415 197.526 104.94C198.31 106.457 198.702 108.23 198.702 110.259C198.702 112.27 198.31 114.038 197.526 115.564C196.742 117.081 195.626 118.266 194.177 119.118C192.737 119.962 191.023 120.384 189.038 120.384ZM189.063 116.165C189.967 116.165 190.721 115.909 191.326 115.398C191.931 114.878 192.387 114.17 192.694 113.276C193.009 112.381 193.167 111.362 193.167 110.22C193.167 109.078 193.009 108.06 192.694 107.165C192.387 106.27 191.931 105.562 191.326 105.043C190.721 104.523 189.967 104.263 189.063 104.263C188.151 104.263 187.384 104.523 186.762 105.043C186.148 105.562 185.684 106.27 185.369 107.165C185.062 108.06 184.908 109.078 184.908 110.22C184.908 111.362 185.062 112.381 185.369 113.276C185.684 114.17 186.148 114.878 186.762 115.398C187.384 115.909 188.151 116.165 189.063 116.165ZM213.852 113.979L219.17 100.364H223.312L215.654 120H212.036L204.558 100.364H208.687L213.852 113.979ZM207.447 100.364V120H202.244V100.364H207.447ZM220.525 120V100.364H225.664V120H220.525ZM235.476 120.371C234.223 120.371 233.107 120.153 232.126 119.719C231.146 119.276 230.371 118.624 229.8 117.763C229.237 116.893 228.956 115.811 228.956 114.516C228.956 113.425 229.156 112.509 229.557 111.767C229.957 111.026 230.503 110.429 231.193 109.977C231.884 109.526 232.668 109.185 233.545 108.955C234.432 108.724 235.361 108.562 236.332 108.469C237.474 108.349 238.395 108.239 239.094 108.136C239.793 108.026 240.3 107.864 240.615 107.651C240.93 107.437 241.088 107.122 241.088 106.705V106.628C241.088 105.818 240.832 105.192 240.321 104.749C239.818 104.305 239.102 104.084 238.173 104.084C237.193 104.084 236.413 104.301 235.834 104.736C235.254 105.162 234.871 105.699 234.683 106.347L229.646 105.938C229.902 104.744 230.405 103.713 231.155 102.844C231.905 101.966 232.872 101.293 234.057 100.824C235.25 100.347 236.631 100.108 238.199 100.108C239.29 100.108 240.334 100.236 241.331 100.491C242.337 100.747 243.227 101.143 244.003 101.68C244.787 102.217 245.405 102.908 245.857 103.751C246.308 104.587 246.534 105.588 246.534 106.756V120H241.369V117.277H241.216C240.901 117.891 240.479 118.432 239.95 118.901C239.422 119.361 238.787 119.723 238.045 119.987C237.304 120.243 236.447 120.371 235.476 120.371ZM237.036 116.612C237.837 116.612 238.544 116.455 239.158 116.139C239.771 115.815 240.253 115.381 240.602 114.835C240.952 114.29 241.126 113.672 241.126 112.982V110.898C240.956 111.009 240.722 111.111 240.423 111.205C240.134 111.29 239.805 111.371 239.439 111.447C239.072 111.516 238.706 111.58 238.339 111.639C237.973 111.69 237.641 111.737 237.342 111.78C236.703 111.874 236.145 112.023 235.668 112.227C235.19 112.432 234.82 112.709 234.555 113.058C234.291 113.399 234.159 113.825 234.159 114.337C234.159 115.078 234.428 115.645 234.964 116.037C235.51 116.42 236.2 116.612 237.036 116.612ZM264.425 108.009V112.291H254.173V108.009H264.425ZM255.962 100.364V120H250.759V100.364H255.962ZM267.839 100.364V120H262.674V100.364H267.839ZM275.477 106.398H281.345C283.945 106.398 285.973 107.02 287.43 108.264C288.888 109.5 289.616 111.153 289.616 113.224C289.616 114.571 289.288 115.756 288.632 116.778C287.976 117.793 287.03 118.585 285.794 119.156C284.558 119.719 283.075 120 281.345 120H272.064V100.364H277.267V115.717H281.345C282.257 115.717 283.007 115.487 283.595 115.027C284.183 114.567 284.482 113.979 284.49 113.263C284.482 112.504 284.183 111.886 283.595 111.409C283.007 110.923 282.257 110.68 281.345 110.68H275.477V106.398ZM291.726 120V100.364H297.172V120H291.726Z" fill="#1B3764"/>
<defs>
<filter id="filter0_d_65_6" x="0" y="0" width="428.667" height="212" filterUnits="userSpaceOnUse" color-interpolation-filters="sRGB">
<feFlood flood-opacity="0" result="BackgroundImageFix"/>
<feColorMatrix in="SourceAlpha" type="matrix" values="0 0 0 0 0 0 0 0 0 0 0 0 0 0 0 0 0 0 127 0" result="hardAlpha"/>
<feOffset dy="4"/>
<feGaussianBlur stdDeviation="5"/>
<feComposite in2="hardAlpha" operator="out"/>
<feColorMatrix type="matrix" values="0 0 0 0 0 0 0 0 0 0 0 0 0 0 0 0 0 0 0.25 0"/>
<feBlend mode="normal" in2="BackgroundImageFix" result="effect1_dropShadow_65_6"/>
<feBlend mode="normal" in="SourceGraphic" in2="effect1_dropShadow_65_6" result="shape"/>
</filter>
</defs>
</svg>
