<svg width="429" height="212" viewBox="0 0 429 212" fill="none" xmlns="http://www.w3.org/2000/svg">
<g filter="url(#filter0_d_7_1378)">
<rect x="10" y="6" width="408.667" height="192" rx="8" fill="#F4F8FF"/>
</g>
<rect x="11" y="8" width="246" height="192" rx="10" fill="#B4C7E7"/>
<path d="M205.101 119.358V114.858H206.52C207.227 114.858 207.798 114.773 208.233 114.602C208.668 114.423 209.013 114.163 209.268 113.822C209.533 113.473 209.754 113.038 209.933 112.518L210.253 111.662L200.741 92.8182H206.469L212.631 105.705L217.783 92.8182H223.433L214.408 113.861C213.973 114.832 213.457 115.736 212.861 116.571C212.273 117.406 211.518 118.08 210.598 118.591C209.678 119.102 208.501 119.358 207.07 119.358H205.101ZM225.047 119L231.912 108.786L225.086 99.3636H231.299L236.4 107.047H237.243V99.3636H242.689V107.047H243.507L248.608 99.3636H254.821L248.007 108.786L254.86 119H248.506L243.456 111.33H242.689V119H237.243V111.33H236.476L231.401 119H225.047ZM263.425 119.371C262.172 119.371 261.056 119.153 260.076 118.719C259.096 118.276 258.32 117.624 257.749 116.763C257.186 115.893 256.905 114.811 256.905 113.516C256.905 112.425 257.105 111.509 257.506 110.767C257.907 110.026 258.452 109.429 259.142 108.977C259.833 108.526 260.617 108.185 261.495 107.955C262.381 107.724 263.31 107.562 264.282 107.469C265.424 107.349 266.344 107.239 267.043 107.136C267.742 107.026 268.249 106.864 268.564 106.651C268.88 106.437 269.037 106.122 269.037 105.705V105.628C269.037 104.818 268.782 104.192 268.27 103.749C267.767 103.305 267.051 103.084 266.123 103.084C265.142 103.084 264.363 103.301 263.783 103.736C263.203 104.162 262.82 104.699 262.632 105.347L257.596 104.938C257.851 103.744 258.354 102.713 259.104 101.844C259.854 100.966 260.821 100.293 262.006 99.8239C263.199 99.3466 264.58 99.108 266.148 99.108C267.239 99.108 268.283 99.2358 269.28 99.4915C270.286 99.7472 271.176 100.143 271.952 100.68C272.736 101.217 273.354 101.908 273.806 102.751C274.257 103.587 274.483 104.588 274.483 105.756V119H269.319V116.277H269.165C268.85 116.891 268.428 117.432 267.9 117.901C267.371 118.361 266.736 118.723 265.995 118.987C265.253 119.243 264.397 119.371 263.425 119.371ZM264.985 115.612C265.786 115.612 266.493 115.455 267.107 115.139C267.721 114.815 268.202 114.381 268.551 113.835C268.901 113.29 269.076 112.672 269.076 111.982V109.898C268.905 110.009 268.671 110.111 268.373 110.205C268.083 110.29 267.755 110.371 267.388 110.447C267.022 110.516 266.655 110.58 266.289 110.639C265.922 110.69 265.59 110.737 265.292 110.78C264.652 110.874 264.094 111.023 263.617 111.227C263.14 111.432 262.769 111.709 262.505 112.058C262.24 112.399 262.108 112.825 262.108 113.337C262.108 114.078 262.377 114.645 262.914 115.037C263.459 115.42 264.15 115.612 264.985 115.612ZM287.581 119.384C285.569 119.384 283.839 118.957 282.39 118.105C280.95 117.244 279.842 116.051 279.066 114.526C278.299 113 277.916 111.244 277.916 109.259C277.916 107.247 278.304 105.483 279.079 103.966C279.863 102.44 280.975 101.251 282.416 100.399C283.856 99.5384 285.569 99.108 287.555 99.108C289.268 99.108 290.768 99.419 292.055 100.041C293.342 100.663 294.36 101.537 295.11 102.662C295.86 103.787 296.274 105.108 296.35 106.625H291.211C291.066 105.645 290.683 104.857 290.061 104.26C289.447 103.655 288.642 103.352 287.645 103.352C286.801 103.352 286.064 103.582 285.433 104.043C284.811 104.494 284.325 105.155 283.975 106.024C283.626 106.893 283.451 107.946 283.451 109.182C283.451 110.435 283.622 111.5 283.963 112.378C284.312 113.256 284.802 113.925 285.433 114.385C286.064 114.845 286.801 115.075 287.645 115.075C288.267 115.075 288.825 114.947 289.319 114.692C289.822 114.436 290.235 114.065 290.559 113.58C290.892 113.085 291.109 112.493 291.211 111.803H296.35C296.265 113.303 295.856 114.624 295.123 115.766C294.399 116.899 293.397 117.786 292.119 118.425C290.841 119.064 289.328 119.384 287.581 119.384ZM303.251 105.398H309.119C311.718 105.398 313.746 106.02 315.204 107.264C316.661 108.5 317.39 110.153 317.39 112.224C317.39 113.571 317.062 114.756 316.406 115.778C315.749 116.793 314.803 117.585 313.567 118.156C312.332 118.719 310.849 119 309.119 119H299.837V99.3636H305.04V114.717H309.119C310.031 114.717 310.781 114.487 311.369 114.027C311.957 113.567 312.255 112.979 312.263 112.263C312.255 111.504 311.957 110.886 311.369 110.409C310.781 109.923 310.031 109.68 309.119 109.68H303.251V105.398ZM319.499 119V99.3636H324.945V119H319.499Z" fill="#1B3764"/>
<path fill-rule="evenodd" clip-rule="evenodd" d="M76.1214 51.5044C79.6251 49.4672 81.8984 53.2509 79.7344 55.2642C78.2893 56.2526 75.1134 57.6818 74.047 58.6802C71.1267 61.413 70.0373 63.1244 67.4008 66.0845C62.8629 71.1806 60.9459 77.0121 63.3042 84.4248C68.7675 70.9216 76.4702 59.9258 90.4385 54.367C104.303 48.8492 118.128 48.8352 131.532 55.9315C141.281 61.0913 147.856 68.9347 150.98 78.8965C156.165 95.4263 151.868 110.329 140.59 123.773C142.288 123.584 143.745 123.293 145.117 122.798C153.316 119.835 156.486 113.362 158.002 105.868C158.755 102.147 159.688 97.8088 159.825 94.6288C160.016 89.7349 165.048 92.0121 164.988 95.0253C164.963 96.3144 165.279 97.5734 165.562 98.8584C165.925 98.8802 170.881 89.9044 172.2 87.8029C173.181 86.2384 174.818 84.7472 176.924 85.8807C179.042 87.021 178.411 89.0038 177.526 90.6724C176.672 92.2764 173.54 98.3193 173.032 99.3618C174.348 99.0826 182.106 95.1638 183.836 94.5303C185.831 93.8005 187.685 94.4278 188.641 96.3424C189.66 98.3805 188.243 99.6115 186.569 100.448C184.092 101.685 177.513 105.653 176.781 106.539C178.028 106.938 183.759 107.42 185.265 107.6C188.235 107.954 188.984 112.716 185.29 112.978C182.655 113.166 179.803 113.472 177.27 112.842C173.533 111.912 170.445 112.936 167.653 114.817C164.9 116.671 162.232 118.789 160.04 121.208C152.388 129.642 142.668 134.499 131.288 136.453C128.017 137.015 125.413 138.154 122.862 140.182C110.309 150.157 96.3953 157.978 80.785 162.879C67.9298 166.914 54.8418 168.709 41.4428 165.483C33.7834 163.639 26.9397 160.326 20.9843 154.831C22.0589 154.651 22.7332 154.539 23.4065 154.421C35.4913 152.311 44.943 146.724 49.9659 135.742C54.6909 125.411 57.7037 114.601 58.9719 103.389C59.071 102.513 58.7931 101.512 58.4036 100.692C55.69 94.9722 54.7227 88.9302 54.2627 82.7317C53.8548 77.2226 55.4154 72.038 56.4562 66.7339C57.6128 60.8431 57.0938 55.2635 52.1223 50.6137C50.3209 49.1899 48.8959 47.1061 47.9561 44.968C46.0471 42.2206 49.9846 39.9433 52.5177 42.5426C53.8023 43.66 57.6768 48.2452 58.7029 49.034C59.0779 47.8725 58.6313 40.32 58.5405 37.6897C58.4988 36.4621 59.3575 34.6106 60.3993 34.079C62.1728 33.1731 64.0956 34.1457 64.7486 35.9733C65.3697 37.7124 67.0251 46.4434 67.5317 46.9707C68.0643 46.4744 71.0338 40.8411 72.4644 38.825C73.1824 37.8142 75.1255 36.8251 76.2904 37.0208C78.4084 37.377 78.4724 39.4912 77.8057 40.9886C76.6877 43.4994 75.1469 45.844 73.7412 48.2359C72.8953 49.6752 71.9683 51.0727 71.0768 52.4879C71.3741 52.7776 74.8351 52.2522 76.1214 51.5044ZM112.415 121.566C108.437 122.744 107.979 122.474 107.408 118.605C106.862 114.91 105.342 114.291 101.983 116.406C98.7473 118.444 96.3789 117.397 96.0419 113.776C95.9713 113.02 96.0173 112.254 95.9254 111.503C95.5782 108.692 94.3986 107.907 91.4498 108.521C90.7679 108.663 90.093 108.868 89.4482 109.121C86.9423 110.102 85.5018 109.737 84.6543 106.898C84.1523 105.217 82.5323 103.078 80.9767 102.68C79.7363 102.363 77.2639 104.034 76.3527 105.422C74.8112 107.766 73.713 110.509 73.0961 113.22C72.4726 115.961 73.9223 117.097 76.9155 116.658C78.4718 116.431 79.9621 115.779 81.4682 115.282C84.5959 114.244 86.081 114.732 87.5523 117.589C88.5137 119.456 89.2986 121.409 90.0405 123.366C91.0084 125.919 92.6671 127.184 95.6908 126.889C97.7606 126.688 99.8881 126.804 101.97 126.987C104.331 127.191 105.549 128.552 106.239 130.75C106.658 132.086 107.879 134.027 108.947 134.157C110.67 134.365 113.295 133.825 114.225 132.661C115.943 130.515 117.688 128.553 117.872 125.14C117.249 120.934 116.438 120.375 112.415 121.566ZM131.909 114.282C135.604 108.916 138.865 103.668 138.693 97.2231C138.603 93.7627 136.772 91.1053 133.537 89.4346C130.134 87.6753 126.994 88.4501 124.016 90.4733C119.519 93.5282 116.428 97.6321 113.793 102.47C121.097 104.905 127.342 108.149 131.909 114.282ZM102.354 97.1958C104.666 90.8979 106.903 84.8593 104.544 78.416C102.204 72.0234 94.2273 70.54 89.2546 75.3923C85.3033 79.2492 83.3237 84.0317 81.8505 89.4833C89.458 90.401 96.3578 92.1059 102.354 97.1958Z" fill="#1B3764"/>
<defs>
<filter id="filter0_d_7_1378" x="0" y="0" width="428.667" height="212" filterUnits="userSpaceOnUse" color-interpolation-filters="sRGB">
<feFlood flood-opacity="0" result="BackgroundImageFix"/>
<feColorMatrix in="SourceAlpha" type="matrix" values="0 0 0 0 0 0 0 0 0 0 0 0 0 0 0 0 0 0 127 0" result="hardAlpha"/>
<feOffset dy="4"/>
<feGaussianBlur stdDeviation="5"/>
<feComposite in2="hardAlpha" operator="out"/>
<feColorMatrix type="matrix" values="0 0 0 0 0 0 0 0 0 0 0 0 0 0 0 0 0 0 0.25 0"/>
<feBlend mode="normal" in2="BackgroundImageFix" result="effect1_dropShadow_7_1378"/>
<feBlend mode="normal" in="SourceGraphic" in2="effect1_dropShadow_7_1378" result="shape"/>
</filter>
</defs>
</svg>
