<svg width="429" height="212" viewBox="0 0 429 212" fill="none" xmlns="http://www.w3.org/2000/svg">
<g filter="url(#filter0_d_65_7)">
<rect x="10" y="6" width="408.667" height="192" rx="8" fill="#F4F8FF"/>
</g>
<path d="M328 110.744C330.848 110.744 333.156 108.62 333.156 106C333.156 103.38 330.848 101.256 328 101.256C325.152 101.256 322.844 103.38 322.844 106C322.844 108.62 325.152 110.744 328 110.744Z" stroke="#1B3764" stroke-width="2" stroke-miterlimit="10"/>
<path d="M338.313 76.4594C341.16 76.4594 343.469 74.3355 343.469 71.7156C343.469 69.0957 341.16 66.9719 338.313 66.9719C335.465 66.9719 333.156 69.0957 333.156 71.7156C333.156 74.3355 335.465 76.4594 338.313 76.4594Z" stroke="#1B3764" stroke-width="2" stroke-miterlimit="10"/>
<path d="M366.203 101.688C369.051 101.688 371.359 99.5637 371.359 96.9438C371.359 94.3239 369.051 92.2 366.203 92.2C363.355 92.2 361.047 94.3239 361.047 96.9438C361.047 99.5637 363.355 101.688 366.203 101.688Z" stroke="#1B3764" stroke-width="2" stroke-miterlimit="10"/>
<path d="M300.578 85.0844C303.426 85.0844 305.734 82.9605 305.734 80.3406C305.734 77.7207 303.426 75.5969 300.578 75.5969C297.73 75.5969 295.422 77.7207 295.422 80.3406C295.422 82.9605 297.73 85.0844 300.578 85.0844Z" stroke="#1B3764" stroke-width="2" stroke-miterlimit="10"/>
<path d="M341.125 79.4781C343 87.025 344.172 96.0813 344.172 106C344.172 131.013 336.906 151.281 328 151.281C319.094 151.281 311.828 131.013 311.828 106C311.828 80.9875 319.094 60.7188 328 60.7188C330.344 60.7188 332.687 62.0125 334.562 64.6" stroke="#1B3764" stroke-width="2" stroke-miterlimit="10"/>
<path d="M360.344 102.55C354.25 107.941 345.812 113.762 336.203 118.937C312.766 131.444 290.031 135.756 285.344 128.641C280.891 121.525 296.359 105.569 319.797 93.0625C343.234 80.5562 365.969 76.2437 370.656 83.3594C371.594 84.8687 371.594 87.025 370.891 89.1812" stroke="#1B3764" stroke-width="2" stroke-miterlimit="10"/>
<path d="M295.422 102.334C301.516 107.941 309.953 113.762 319.797 118.938C343.234 131.444 365.969 135.756 370.656 128.641C375.109 121.525 359.641 105.569 336.203 93.0625C326.828 88.1031 317.688 84.4375 309.719 82.2812" stroke="#1B3764" stroke-width="2" stroke-miterlimit="10"/>
<path d="M291.437 80.125C288.625 80.5563 286.516 81.6344 285.578 83.3594C283 87.4562 286.984 94.5719 295.656 102.334" stroke="#1B3764" stroke-width="2" stroke-miterlimit="10" stroke-dasharray="2 2"/>
<path d="M7 16C7 11.5817 10.5817 8 15 8H222.959C229.045 8 232.902 14.5276 229.966 19.8594L186.302 99.1406C184.979 101.543 184.979 104.457 186.302 106.859L229.966 186.141C232.902 191.472 229.045 198 222.959 198H15C10.5817 198 7 194.418 7 190V16Z" fill="#1B3764"/>
<path d="M207.408 106.088V110.409H195.467V106.088H207.408ZM212.048 119V99.3636H229.217V119H224.014V103.646H217.188V119H212.048ZM242.436 119.384C240.45 119.384 238.733 118.962 237.284 118.118C235.844 117.266 234.732 116.081 233.947 114.564C233.163 113.038 232.771 111.27 232.771 109.259C232.771 107.23 233.163 105.457 233.947 103.94C234.732 102.415 235.844 101.23 237.284 100.386C238.733 99.5341 240.45 99.108 242.436 99.108C244.422 99.108 246.135 99.5341 247.575 100.386C249.024 101.23 250.141 102.415 250.925 103.94C251.709 105.457 252.101 107.23 252.101 109.259C252.101 111.27 251.709 113.038 250.925 114.564C250.141 116.081 249.024 117.266 247.575 118.118C246.135 118.962 244.422 119.384 242.436 119.384ZM242.462 115.165C243.365 115.165 244.119 114.909 244.724 114.398C245.33 113.878 245.786 113.17 246.092 112.276C246.408 111.381 246.565 110.362 246.565 109.22C246.565 108.078 246.408 107.06 246.092 106.165C245.786 105.27 245.33 104.562 244.724 104.043C244.119 103.523 243.365 103.263 242.462 103.263C241.55 103.263 240.783 103.523 240.161 104.043C239.547 104.562 239.082 105.27 238.767 106.165C238.46 107.06 238.307 108.078 238.307 109.22C238.307 110.362 238.46 111.381 238.767 112.276C239.082 113.17 239.547 113.878 240.161 114.398C240.783 114.909 241.55 115.165 242.462 115.165ZM255.642 119V99.3636H272.811V119H267.608V103.646H260.781V119H255.642Z" fill="black"/>
<path d="M97.2756 119V92.8182H102.811V103.621H114.048V92.8182H119.571V119H114.048V108.185H102.811V119H97.2756ZM129.632 119.371C128.379 119.371 127.263 119.153 126.283 118.719C125.303 118.276 124.527 117.624 123.956 116.763C123.393 115.893 123.112 114.811 123.112 113.516C123.112 112.425 123.313 111.509 123.713 110.767C124.114 110.026 124.659 109.429 125.349 108.977C126.04 108.526 126.824 108.185 127.702 107.955C128.588 107.724 129.517 107.562 130.489 107.469C131.631 107.349 132.551 107.239 133.25 107.136C133.949 107.026 134.456 106.864 134.771 106.651C135.087 106.437 135.244 106.122 135.244 105.705V105.628C135.244 104.818 134.989 104.192 134.477 103.749C133.974 103.305 133.259 103.084 132.33 103.084C131.349 103.084 130.57 103.301 129.99 103.736C129.411 104.162 129.027 104.699 128.839 105.347L123.803 104.938C124.058 103.744 124.561 102.713 125.311 101.844C126.061 100.966 127.028 100.293 128.213 99.8239C129.406 99.3466 130.787 99.108 132.355 99.108C133.446 99.108 134.49 99.2358 135.487 99.4915C136.493 99.7472 137.384 100.143 138.159 100.68C138.943 101.217 139.561 101.908 140.013 102.751C140.464 103.587 140.69 104.588 140.69 105.756V119H135.526V116.277H135.372C135.057 116.891 134.635 117.432 134.107 117.901C133.578 118.361 132.943 118.723 132.202 118.987C131.46 119.243 130.604 119.371 129.632 119.371ZM131.192 115.612C131.993 115.612 132.7 115.455 133.314 115.139C133.928 114.815 134.409 114.381 134.759 113.835C135.108 113.29 135.283 112.672 135.283 111.982V109.898C135.112 110.009 134.878 110.111 134.58 110.205C134.29 110.29 133.962 110.371 133.595 110.447C133.229 110.516 132.862 110.58 132.496 110.639C132.129 110.69 131.797 110.737 131.499 110.78C130.859 110.874 130.301 111.023 129.824 111.227C129.347 111.432 128.976 111.709 128.712 112.058C128.447 112.399 128.315 112.825 128.315 113.337C128.315 114.078 128.584 114.645 129.121 115.037C129.666 115.42 130.357 115.612 131.192 115.612ZM147.575 126.364C146.884 126.364 146.237 126.308 145.631 126.197C145.035 126.095 144.54 125.963 144.148 125.801L145.376 121.736C146.015 121.932 146.59 122.038 147.102 122.055C147.621 122.072 148.069 121.953 148.444 121.697C148.827 121.442 149.138 121.007 149.377 120.393L149.697 119.562L142.653 99.3636H148.38L152.445 113.784H152.65L156.754 99.3636H162.519L154.887 121.122C154.521 122.179 154.022 123.099 153.391 123.884C152.769 124.676 151.981 125.286 151.026 125.712C150.072 126.146 148.921 126.364 147.575 126.364ZM181.82 99.3636V119H176.655V99.3636H181.82ZM179.301 107.98V112.276C178.884 112.463 178.364 112.642 177.742 112.812C177.12 112.974 176.468 113.107 175.786 113.209C175.104 113.311 174.465 113.362 173.868 113.362C171.047 113.362 168.827 112.783 167.208 111.624C165.588 110.456 164.779 108.594 164.779 106.037V99.3381H169.918V106.037C169.918 106.795 170.046 107.396 170.301 107.839C170.566 108.283 170.983 108.602 171.554 108.798C172.134 108.986 172.905 109.08 173.868 109.08C174.763 109.08 175.641 108.986 176.502 108.798C177.363 108.611 178.296 108.338 179.301 107.98Z" fill="#FFCA42"/>
<defs>
<filter id="filter0_d_65_7" x="0" y="0" width="428.667" height="212" filterUnits="userSpaceOnUse" color-interpolation-filters="sRGB">
<feFlood flood-opacity="0" result="BackgroundImageFix"/>
<feColorMatrix in="SourceAlpha" type="matrix" values="0 0 0 0 0 0 0 0 0 0 0 0 0 0 0 0 0 0 127 0" result="hardAlpha"/>
<feOffset dy="4"/>
<feGaussianBlur stdDeviation="5"/>
<feComposite in2="hardAlpha" operator="out"/>
<feColorMatrix type="matrix" values="0 0 0 0 0 0 0 0 0 0 0 0 0 0 0 0 0 0 0.25 0"/>
<feBlend mode="normal" in2="BackgroundImageFix" result="effect1_dropShadow_65_7"/>
<feBlend mode="normal" in="SourceGraphic" in2="effect1_dropShadow_65_7" result="shape"/>
</filter>
</defs>
</svg>
